<svg width="24" height="24" viewBox="0 0 24 24"  xmlns="http://www.w3.org/2000/svg">
<path d="M12 22.75C17.9371 22.75 22.75 17.9371 22.75 12C22.75 6.06294 17.9371 1.25 12 1.25C6.06294 1.25 1.25 6.06294 1.25 12C1.25 17.9371 6.06294 22.75 12 22.75Z" />
<path d="M12 19.25C16.0041 19.25 19.25 16.0041 19.25 12C19.25 7.99594 16.0041 4.75 12 4.75C7.99594 4.75 4.75 7.99594 4.75 12C4.75 16.0041 7.99594 19.25 12 19.25Z" stroke="black" stroke-linecap="round" stroke-linejoin="round"/>
<path d="M12 7.53247C14.467 7.53247 16.4675 9.53247 16.4675 12" stroke="black" stroke-linecap="round" stroke-linejoin="round"/>
</svg>
