<svg width="19" height="20" viewBox="0 0 19 20" fill="none" xmlns="http://www.w3.org/2000/svg">
<path d="M9.49992 18.5105C14.2001 18.5105 18.0103 14.7002 18.0103 10C18.0103 5.29987 14.2001 1.48962 9.49992 1.48962C4.79975 1.48962 0.989502 5.29987 0.989502 10C0.989502 14.7002 4.79975 18.5105 9.49992 18.5105Z" fill="#E3C317"/>
<path d="M9.50008 15.7395C12.67 15.7395 15.2397 13.1698 15.2397 9.99996C15.2397 6.83008 12.67 4.26038 9.50008 4.26038C6.3302 4.26038 3.7605 6.83008 3.7605 9.99996C3.7605 13.1698 6.3302 15.7395 9.50008 15.7395Z" stroke="#F4E7BA" stroke-linecap="round" stroke-linejoin="round"/>
<path d="M9.5 6.46326C11.453 6.46326 13.0368 8.04659 13.0368 10" stroke="#F4E7BA" stroke-linecap="round" stroke-linejoin="round"/>
</svg>
