<svg width="24" height="24" viewBox="0 0 24 24" xmlns="http://www.w3.org/2000/svg">
<g clip-path="url(#clip0_45_51)">
<path d="M5.40675 21.9804C3.22725 22.4949 1.53375 22.5001 1.5 22.5001C1.5 22.4664 1.50525 20.7729 2.01975 18.5934C2.51925 16.4784 5.172 15.7546 6.70875 17.2914C8.2455 18.8281 7.5225 21.4809 5.40675 21.9804ZM11.616 17.9851C22.7003 12.9084 22.677 4.53088 22.4437 2.23738C22.407 1.87738 22.1227 1.59313 21.7635 1.55713C19.4692 1.32313 11.0918 1.29988 6.015 12.3841C8.81025 15.1794 8.82075 15.1899 11.616 17.9851Z" fill="white"/>
<path d="M15.5865 10.4978C16.7376 10.4978 17.6708 9.5647 17.6708 8.4136C17.6708 7.2625 16.7376 6.32935 15.5865 6.32935C14.4354 6.32935 13.5023 7.2625 13.5023 8.4136C13.5023 9.5647 14.4354 10.4978 15.5865 10.4978Z" fill="white"/>
<path d="M9.72749 6.58496C8.39999 8.06246 7.12499 9.95246 6.01499 12.3825V12.39L2.39999 10.395C1.94999 10.1475 1.85999 9.53996 2.22749 9.17246L4.13999 7.25996C4.57499 6.82496 5.16749 6.58496 5.78249 6.58496H9.72749ZM17.415 14.2725V18.225C17.415 18.84 17.1675 19.4325 16.7325 19.8675L14.8275 21.7725C14.46 22.14 13.8525 22.05 13.605 21.6L11.61 17.985H11.6175C14.0475 16.875 15.9375 15.6 17.415 14.2725Z" fill="white"/>
<path d="M3.77026 15.9293C2.55226 16.275 1.65226 17.2133 1.36276 18.438C0.831012 20.6903 0.825012 22.4273 0.825012 22.5C0.825012 22.8728 1.12726 23.175 1.50001 23.175C1.57276 23.175 3.30976 23.1683 5.56201 22.6365C6.78676 22.347 7.72501 21.447 8.07076 20.229C8.42176 18.9945 8.09101 17.7173 7.18651 16.8128C6.28201 15.9098 5.00701 15.5783 3.77026 15.9293ZM6.77176 19.86C6.56176 20.601 5.99326 21.1478 5.25151 21.3225C3.98551 21.621 2.88451 21.7425 2.20801 21.7913C2.25676 21.1155 2.37826 20.0138 2.67676 18.7478C2.85151 18.006 3.39826 17.4375 4.13926 17.2275C4.33801 17.1705 4.53901 17.1435 4.73701 17.1435C5.29126 17.1435 5.82376 17.3603 6.23101 17.7683C6.78526 18.3218 6.98701 19.104 6.77176 19.86ZM23.115 2.16902C23.046 1.49402 22.506 0.954015 21.831 0.885015C19.8833 0.687765 14.2875 0.675015 9.42601 5.91152L5.78026 5.90851C5.78026 5.90851 5.77801 5.90851 5.77651 5.90851C4.98901 5.90851 4.21876 6.22801 3.66151 6.78451L1.74751 8.69851C1.42201 9.02402 1.27351 9.47177 1.33876 9.92627C1.40401 10.3808 1.67176 10.7685 2.07376 10.9898L5.61226 12.9368L11.0618 18.3863L13.0088 21.9248C13.23 22.3275 13.6185 22.596 14.073 22.6598C14.1435 22.6703 14.2133 22.6755 14.2815 22.6755C14.6625 22.6755 15.0248 22.5263 15.3 22.2518L17.2095 20.3423C17.775 19.7768 18.0863 19.0253 18.0863 18.2265L18.087 14.574C23.3258 9.71476 23.3138 4.11977 23.115 2.16902ZM2.67451 9.73577C2.67076 9.70352 2.67976 9.67502 2.70301 9.65252L4.61701 7.73927C4.92226 7.43402 5.34526 7.25852 5.77801 7.25852H5.77951L8.28676 7.26077C7.37851 8.43602 6.51151 9.82202 5.71501 11.4525L2.72551 9.80702C2.69626 9.79127 2.67976 9.76727 2.67451 9.73577ZM21.6953 2.22827C21.7358 2.23202 21.768 2.26502 21.7725 2.30627C22.0043 4.58027 21.9503 12.2993 11.7593 17.1735L6.82726 12.2415C11.7015 2.04977 19.4168 1.99427 21.6953 2.22827ZM16.737 18.2273C16.737 18.666 16.566 19.0785 16.2555 19.3883L14.346 21.2978C14.3243 21.3203 14.2958 21.3315 14.2643 21.3255C14.232 21.3203 14.208 21.3038 14.1915 21.276L12.5468 18.2865C14.1773 17.4908 15.5625 16.6238 16.737 15.7163V18.2273Z" fill="#D9D9D9"/>
<path d="M15.5858 11.1728C16.3223 11.1728 17.016 10.8863 17.538 10.3651C18.6135 9.2888 18.6135 7.5383 17.538 6.46205C16.4948 5.41955 14.6783 5.41955 13.635 6.46205C13.1145 6.9833 12.8265 7.6763 12.8265 8.41355C12.8265 9.1508 13.1145 9.8438 13.635 10.3651C14.1563 10.8863 14.8493 11.1728 15.5858 11.1728ZM14.5898 7.4168C14.8553 7.15055 15.2093 7.0043 15.5858 7.0043C15.9623 7.0043 16.317 7.15055 16.5825 7.4168C17.1315 7.96655 17.1315 8.86055 16.5825 9.4103C16.0508 9.9428 15.1215 9.9428 14.5898 9.4103C14.3235 9.14405 14.1765 8.79005 14.1765 8.41355C14.1765 8.03705 14.3235 7.6838 14.5898 7.4168Z" fill="#D9D9D9"/>
</g>
<defs>
<clipPath id="clip0_45_51">
<rect width="24" height="24"/>
</clipPath>
</defs>
</svg>
