<svg width="24" height="24" viewBox="0 0 24 24" fill="none" xmlns="http://www.w3.org/2000/svg">
<path d="M5.40675 21.9804C3.22725 22.4949 1.53375 22.5001 1.5 22.5001C1.5 22.4664 1.50525 20.7729 2.01975 18.5934C2.51925 16.4784 5.172 15.7546 6.70875 17.2914C8.2455 18.8281 7.5225 21.4809 5.40675 21.9804ZM11.616 17.9851C22.7003 12.9084 22.677 4.53088 22.4437 2.23738C22.407 1.87738 22.1227 1.59313 21.7635 1.55713C19.4692 1.32313 11.0918 1.29988 6.015 12.3841C8.81025 15.1794 8.82075 15.1899 11.616 17.9851Z" fill="#17D2FB"/>
<path d="M15.5864 10.4978C16.7375 10.4978 17.6707 9.5647 17.6707 8.4136C17.6707 7.2625 16.7375 6.32935 15.5864 6.32935C14.4353 6.32935 13.5022 7.2625 13.5022 8.4136C13.5022 9.5647 14.4353 10.4978 15.5864 10.4978Z" fill="#17D2FB"/>
<path d="M9.72743 6.58496C8.39993 8.06246 7.12493 9.95246 6.01493 12.3825V12.39L2.39993 10.395C1.94993 10.1475 1.85993 9.53996 2.22743 9.17246L4.13993 7.25996C4.57493 6.82496 5.16743 6.58496 5.78243 6.58496H9.72743ZM17.4149 14.2725V18.225C17.4149 18.84 17.1674 19.4325 16.7324 19.8675L14.8274 21.7725C14.4599 22.14 13.8524 22.05 13.6049 21.6L11.6099 17.985H11.6174C14.0474 16.875 15.9374 15.6 17.4149 14.2725Z" fill="#17D2FB"/>
<path d="M3.7702 15.9293C2.5522 16.275 1.6522 17.2133 1.3627 18.438C0.830951 20.6903 0.824951 22.4273 0.824951 22.5C0.824951 22.8728 1.1272 23.175 1.49995 23.175C1.5727 23.175 3.3097 23.1683 5.56195 22.6365C6.7867 22.347 7.72495 21.447 8.0707 20.229C8.4217 18.9945 8.09095 17.7173 7.18645 16.8128C6.28195 15.9098 5.00695 15.5783 3.7702 15.9293ZM6.7717 19.86C6.5617 20.601 5.9932 21.1478 5.25145 21.3225C3.98545 21.621 2.88445 21.7425 2.20795 21.7913C2.2567 21.1155 2.3782 20.0138 2.6767 18.7478C2.85145 18.006 3.3982 17.4375 4.1392 17.2275C4.33795 17.1705 4.53895 17.1435 4.73695 17.1435C5.2912 17.1435 5.8237 17.3603 6.23095 17.7683C6.7852 18.3218 6.98695 19.104 6.7717 19.86ZM23.115 2.16902C23.0459 1.49402 22.506 0.954015 21.831 0.885015C19.8832 0.687765 14.2875 0.675015 9.42595 5.91152L5.7802 5.90851C5.7802 5.90851 5.77795 5.90851 5.77645 5.90851C4.98895 5.90851 4.2187 6.22801 3.66145 6.78451L1.74745 8.69851C1.42195 9.02402 1.27345 9.47177 1.3387 9.92627C1.40395 10.3808 1.6717 10.7685 2.0737 10.9898L5.6122 12.9368L11.0617 18.3863L13.0087 21.9248C13.2299 22.3275 13.6185 22.596 14.073 22.6598C14.1435 22.6703 14.2132 22.6755 14.2815 22.6755C14.6625 22.6755 15.0247 22.5263 15.3 22.2518L17.2094 20.3423C17.775 19.7768 18.0862 19.0253 18.0862 18.2265L18.087 14.574C23.3257 9.71476 23.3137 4.11977 23.115 2.16902ZM2.67445 9.73577C2.6707 9.70352 2.6797 9.67502 2.70295 9.65252L4.61695 7.73927C4.9222 7.43402 5.3452 7.25852 5.77795 7.25852H5.77945L8.2867 7.26077C7.37845 8.43602 6.51145 9.82202 5.71495 11.4525L2.72545 9.80702C2.6962 9.79127 2.6797 9.76727 2.67445 9.73577ZM21.6952 2.22827C21.7357 2.23202 21.768 2.26502 21.7725 2.30627C22.0042 4.58027 21.9502 12.2993 11.7592 17.1735L6.8272 12.2415C11.7015 2.04977 19.4167 1.99427 21.6952 2.22827ZM16.737 18.2273C16.737 18.666 16.566 19.0785 16.2555 19.3883L14.346 21.2978C14.3242 21.3203 14.2957 21.3315 14.2642 21.3255C14.2319 21.3203 14.208 21.3038 14.1915 21.276L12.5467 18.2865C14.1772 17.4908 15.5625 16.6238 16.737 15.7163V18.2273Z" fill="#17D2FB"/>
<path d="M15.5857 11.1728C16.3222 11.1728 17.0159 10.8863 17.5379 10.3651C18.6134 9.2888 18.6134 7.5383 17.5379 6.46205C16.4947 5.41955 14.6782 5.41955 13.6349 6.46205C13.1144 6.9833 12.8264 7.6763 12.8264 8.41355C12.8264 9.1508 13.1144 9.8438 13.6349 10.3651C14.1562 10.8863 14.8492 11.1728 15.5857 11.1728ZM14.5897 7.4168C14.8552 7.15055 15.2092 7.0043 15.5857 7.0043C15.9622 7.0043 16.3169 7.15055 16.5824 7.4168C17.1314 7.96655 17.1314 8.86055 16.5824 9.4103C16.0507 9.9428 15.1214 9.9428 14.5897 9.4103C14.3234 9.14405 14.1764 8.79005 14.1764 8.41355C14.1764 8.03705 14.3234 7.6838 14.5897 7.4168Z" fill="#17D2FB"/>
</svg>
