<svg width="30" height="30" viewBox="0 0 30 30" fill="none" xmlns="http://www.w3.org/2000/svg">
<g clip-path="url(#clip0_40_237)">
<path d="M25.3125 21.9844C25.3125 27.6562 20.7188 27.6562 15 27.6562C9.28125 27.6562 4.6875 27.6562 4.6875 21.9844C4.6875 16.3125 9.32812 7.03125 15 7.03125C20.6719 7.03125 25.3125 16.2656 25.3125 21.9844Z" fill="#DBB471"/>
<path opacity="0.5" d="M25.3125 21.9844C25.3125 20.0625 24.7969 17.7188 23.8594 15.4688C24.0469 16.9219 23.6719 19.5 19.2188 20.4844C12.8906 21.8438 16.1719 23.625 13.6875 23.8594C11.5781 24.0469 5.95313 23.2031 4.82813 20.0156C4.73438 20.7188 4.64062 21.375 4.64062 22.0312C4.6875 27.6562 9.32813 27.6562 15 27.6562C20.6719 27.6562 25.3125 27.6563 25.3125 21.9844Z" fill="#89664C"/>
<path d="M17.7655 19.2656C17.578 18.3281 16.7811 18.0469 15.9374 18V16.6875C16.1717 16.7812 16.453 16.9219 16.6405 17.0625C17.0155 17.2969 17.3905 16.6875 17.0155 16.4531C16.6874 16.2656 16.3124 16.0781 15.9374 15.9375V14.3906C15.9374 13.9219 15.2342 13.9219 15.2342 14.3906V15.75C14.8592 15.7031 14.4842 15.7031 14.1092 15.75C14.0624 15.4219 13.9686 15.0937 13.8749 14.7656C13.7811 14.2969 13.078 14.4844 13.2186 14.9531C13.3124 15.2812 13.3592 15.6094 13.453 15.9375C13.4061 15.9375 13.4061 15.9375 13.3592 15.9844C12.4217 16.3594 11.8124 17.2969 12.5155 18.1875C12.8436 18.6094 13.2655 18.75 13.7342 18.8438C13.7811 19.4531 13.7811 20.0625 13.7811 20.6719C13.453 20.4844 13.1717 20.2031 12.9374 19.9687C12.6092 19.6406 12.1405 20.1563 12.4217 20.4844C12.8436 20.9531 13.3124 21.2813 13.7811 21.5156C13.7811 22.0313 13.828 22.5469 13.8749 23.0625C13.9217 23.5313 14.6249 23.5313 14.578 23.0625C14.5311 22.5938 14.4842 22.1719 14.4842 21.7031C14.7655 21.75 15.0467 21.75 15.328 21.75C15.3749 22.2188 15.4217 22.6875 15.4686 23.2031C15.5155 23.6719 16.2186 23.6719 16.1717 23.2031C16.1249 22.6875 16.078 22.1719 16.0311 21.6094C17.0624 21.2344 17.9999 20.4375 17.7655 19.2656ZM15.2342 16.4531V18C14.9999 18 14.8124 18.0469 14.6249 18.0469H14.3905L14.2499 16.3594C14.578 16.3594 14.9061 16.4062 15.2342 16.4531ZM13.5467 17.9531C13.3592 17.9062 13.1717 17.7656 12.9842 17.625C12.5624 17.2031 13.1717 16.8281 13.5467 16.6406C13.5936 17.1094 13.6405 17.5313 13.6874 18C13.6405 18 13.5936 18 13.5467 17.9531ZM15.0936 20.9531C14.8592 21 14.6717 20.9531 14.4842 20.9062C14.4374 20.2031 14.4374 19.5 14.4374 18.75C14.7186 18.75 14.9999 18.7031 15.2811 18.7031C15.2811 19.4531 15.328 20.1562 15.328 20.9062C15.2342 20.9531 15.1874 20.9531 15.0936 20.9531ZM16.6405 20.4375C16.453 20.5781 16.2186 20.6719 16.0311 20.7656C15.9842 20.0625 15.9842 19.4063 15.9842 18.7031H16.2186C17.1092 18.8906 17.3436 19.875 16.6405 20.4375Z" fill="#89664C"/>
<path d="M15.9375 25.7812H14.8594V27.6562L19.2187 30L29.0625 26.9531V25.3125L25.4531 23.2031L15.9375 25.7812Z" fill="#699635"/>
<path d="M15 24.7031C15 24.7031 16.125 26.5312 19.3125 28.125C19.3125 28.125 24.2812 27.8906 29.0625 24.7031C29.0625 24.7031 26.2969 23.3438 25.5 21.5625C25.5 21.5625 23.625 24.1875 15 24.7031Z" fill="#83BF4F"/>
<path d="M12.8906 25.7344L13.9219 25.6875L14.0625 27.4219L9.98437 30L0.1875 27.8906L0.046875 26.3438L3.375 24.0469L12.8906 25.7344Z" fill="#699635"/>
<path d="M13.6875 24.6562C13.6875 24.6562 12.7031 26.4844 9.75 28.2188C9.75 28.2188 4.92188 28.3594 0 25.7813C0 25.7813 2.625 24.2813 3.23438 22.5C3.23438 22.5 5.29688 24.8437 13.6875 24.6562Z" fill="#83BF4F"/>
<path d="M11.3438 25.1719C11.3438 25.1719 11.2031 25.5469 11.8594 25.5937L10.125 27.0469C10.125 27.0469 9.09375 26.9531 8.85937 27.6562C8.85937 27.6562 4.64063 27.1875 1.92187 25.9687C1.92187 25.9687 2.48438 25.5469 1.78125 25.2656C1.78125 25.2656 2.57813 24.7031 2.76563 24.1875C2.76563 24.1875 3.51562 24.2812 3.75 23.7187C3.84375 23.6719 6.65625 25.3594 11.3438 25.1719Z" stroke="#699635" stroke-miterlimit="10"/>
<path d="M4.125 25.8281C4.61688 25.8281 5.01562 25.5553 5.01562 25.2187C5.01562 24.8822 4.61688 24.6094 4.125 24.6094C3.63312 24.6094 3.23438 24.8822 3.23438 25.2187C3.23438 25.5553 3.63312 25.8281 4.125 25.8281Z" fill="#699635"/>
<path d="M8.90625 24.4687C8.90625 24.4687 7.82812 25.875 5.48437 27.7969L5.625 29.0625L3.98437 28.6875L3.89062 27.3281C3.89062 27.3281 6.28125 25.125 6.79687 24.0469C6.75 24.0469 7.59375 24.3281 8.90625 24.4687ZM19.7344 24.1406C19.7344 24.1406 20.1562 25.2656 23.3437 27.3281V28.6875L25.1719 28.125V26.7187C25.1719 26.7187 22.9688 25.1719 21.6562 23.625L19.7344 24.1406Z" fill="#F9F3D9"/>
<path d="M17.0625 22.6406L16.0313 22.5938L15.9375 24.5156L20.1094 27.1875L29.9062 24.5156L29.9531 22.8281L26.5312 20.4375L17.0625 22.6406Z" fill="#699635"/>
<path d="M16.2188 21.4687C16.2188 21.4687 17.25 23.4375 20.2969 25.2188C20.2969 25.2188 25.1719 25.2188 30 22.2188C30 22.2188 27.3281 20.6719 26.6719 18.75C26.6719 18.75 24.6562 21.375 16.2188 21.4687Z" fill="#83BF4F"/>
<path d="M18.3281 21.9844C18.3281 21.9844 18.5625 22.3594 17.8125 22.5L19.7813 24.0469C19.7813 24.0469 20.9063 23.7656 21.2813 24.4219C21.2813 24.4219 25.9688 23.5781 28.125 22.4531C28.125 22.4531 27.4219 22.125 28.125 21.7031C28.125 21.7031 27.2812 21 26.9531 20.5313C26.9531 20.5313 26.1563 20.7656 25.7344 20.2031C25.7344 20.25 24.0469 21.75 18.3281 21.9844Z" stroke="#699635" stroke-miterlimit="10"/>
<path d="M21.9377 23.1563C21.7502 23.3907 21.1408 23.4844 20.6252 23.3438C20.1095 23.2032 19.8752 22.875 20.0627 22.6407C20.2502 22.4063 20.8595 22.3125 21.3752 22.4532C21.8908 22.5938 22.1252 22.875 21.9377 23.1563Z" fill="#699635"/>
<path d="M21 21.0937C21 21.0937 22.125 22.5937 24.5156 24.6094L24.4688 26.0156L26.1094 25.5469L26.1562 24.0469C26.1562 24.0469 23.7188 21.7031 23.1094 20.5781C23.1562 20.5781 22.3594 20.9062 21 21.0937Z" fill="#F9F3D9"/>
<path d="M21.5625 0.9375C21.5625 3.79688 17.8594 8.4375 15 8.4375C12.1406 8.4375 8.4375 4.26562 8.4375 1.40625C8.4375 -1.45312 8.85938 1.40625 11.7188 1.40625C12.1406 1.40625 14.1094 0 15 0C15.6094 0 17.3438 1.40625 18.2812 1.40625C20.7656 1.40625 21.5625 -1.21875 21.5625 0.9375Z" fill="#DBB471"/>
<path d="M14.1564 6.23432C13.8751 6.42182 12.5158 6.2812 12.0939 6.60932C11.5314 7.0312 12.3283 8.01557 11.7658 8.62495C10.6408 9.74995 9.75013 11.0156 10.0314 11.7187C10.5001 12.9374 11.3908 9.4687 12.1876 10.7812C12.9845 12.0937 12.8439 9.89057 14.0626 11.0156C15.2814 12.1406 14.2501 8.99995 15.422 10.3593C16.5939 11.7187 16.6408 13.2656 17.4845 13.2656C18.4689 13.2656 16.4533 9.56245 17.7658 10.4531C19.0783 11.3437 20.5314 11.0156 19.2189 9.6562C18.797 9.23432 18.2345 8.48432 17.5783 7.82807C17.3439 7.5937 17.5314 6.37495 17.297 6.18745C17.0158 5.95307 16.3126 6.70307 16.0314 6.56245C15.4689 6.2812 15.6564 6.79682 14.8126 6.93745C14.2501 7.12495 14.7189 5.85932 14.1564 6.23432Z" fill="#89664C"/>
<path d="M8.76545 8.99995C10.5936 7.26557 13.9217 8.24995 15.8905 9.0937C17.8123 9.93745 18.9842 7.26557 17.7655 5.9062C17.0623 5.10932 15.9373 6.04682 15.5155 6.60932C15.0467 7.17182 14.6717 7.7812 14.1561 8.3437C13.4061 9.18745 11.578 8.48432 12.1405 7.31245C12.7498 6.0937 15.328 7.49995 16.1717 7.73432C17.8123 8.20307 19.5467 8.39057 21.1873 7.7812C21.7498 7.5937 21.5155 6.6562 20.953 6.89057C19.1248 7.54682 17.2967 7.12495 15.5623 6.56245C14.6717 6.2812 13.2655 5.5312 12.328 5.95307C9.65608 7.2187 12.1405 10.8281 14.3905 9.42182C14.9061 9.0937 15.2342 8.57807 15.6092 8.10932C15.8436 7.82807 17.0155 6.04682 17.2967 6.93745C17.4373 7.4062 17.2967 8.24995 16.7811 8.39057C16.453 8.5312 15.7967 8.06245 15.4686 7.9687C14.8592 7.73432 14.2498 7.54682 13.5936 7.4062C11.8592 7.0312 9.51545 7.12495 8.15608 8.39057C7.68733 8.76557 8.34358 9.42182 8.76545 8.99995Z" fill="#E8E8E8"/>
<path d="M21 0.234375C20.5312 0.609375 19.6875 1.40625 18.2812 1.40625C17.3438 1.40625 15.6094 0 15 0C14.1094 0 12.1406 1.40625 11.7188 1.40625C10.1719 1.40625 9.32812 0.609375 8.90625 0.28125C8.90625 0.28125 9.42187 2.39062 11.0156 3.46875C12.1875 4.21875 12.0469 3.32812 12.6562 2.48438C13.2656 1.64063 13.6875 1.21875 14.7656 3.32812C15.3281 4.5 16.4062 0.140625 17.25 1.54688C18.7969 4.125 19.3594 2.71875 21 0.234375Z" fill="#89664C"/>
<path d="M24.5624 24.5625L24.5155 25.9688L26.1562 25.5L26.203 24C26.203 24.0469 25.2187 24.4219 24.5624 24.5625ZM23.3437 27.375V28.7344L25.1718 28.1719V26.7656C25.1249 26.7187 24.6562 27 23.3437 27.375ZM5.48429 27.75L5.62492 29.0625L3.98429 28.6875L3.89054 27.3281C3.84367 27.3281 4.49992 27.5625 5.48429 27.75Z" fill="#DBB471"/>
</g>
<defs>
<clipPath id="clip0_40_237">
<rect width="30" height="30" fill="white"/>
</clipPath>
</defs>
</svg>
