<svg width="24" height="24" viewBox="0 0 24 24"  xmlns="http://www.w3.org/2000/svg">
<path fill-rule="evenodd" clip-rule="evenodd" d="M12.0239 0C9.1229 0 6.48007 0.99475 4.91621 1.80748C4.77492 1.88082 4.64326 1.95283 4.52059 2.02217C4.27782 2.15951 4.07102 2.28752 3.90661 2.4002L5.68562 5.11909L6.5231 5.46512C9.79597 7.17926 14.1851 7.17926 17.4586 5.46512L18.4091 4.95308L20.0911 2.4002C19.7427 2.16422 19.3804 1.95112 19.0064 1.76215C17.4502 0.95808 14.8703 0 12.0246 0M7.88723 3.07759C7.25726 2.95522 6.63506 2.79313 6.02408 2.59222C7.48904 1.91683 9.67202 1.2001 12.0246 1.2001C13.6539 1.2001 15.1947 1.54413 16.4689 1.98017C14.9757 2.19818 13.3823 2.56821 11.864 3.02359C10.6694 3.38228 9.27319 3.34361 7.88723 3.07759ZM18.1374 6.45387L17.9794 6.53654C14.379 8.42203 9.6033 8.42203 6.00289 6.53654L5.85324 6.45787C0.443635 12.6191 -3.68599 24 12.0239 24C27.7338 24 23.504 12.4077 18.1374 6.45387ZM11.3566 12.001C11.016 12.001 10.6892 12.1415 10.4484 12.3916C10.2075 12.6416 10.0721 12.9808 10.0721 13.3344C10.0721 13.6881 10.2075 14.0273 10.4484 14.2773C10.6892 14.5274 11.016 14.6679 11.3566 14.6679V12.001ZM12.6411 10.6676V10.0008H11.3566V10.6676C10.6753 10.6676 10.0219 10.9485 9.54009 11.4487C9.05831 11.9488 8.78765 12.6271 8.78765 13.3344C8.78765 14.0417 9.05831 14.7201 9.54009 15.2202C10.0219 15.7204 10.6753 16.0013 11.3566 16.0013V18.6682C10.7979 18.6682 10.322 18.2982 10.1447 17.7795C10.1184 17.6946 10.076 17.6161 10.0199 17.5485C9.9639 17.481 9.89538 17.4258 9.81843 17.3862C9.74148 17.3467 9.65766 17.3235 9.57195 17.3181C9.48623 17.3128 9.40034 17.3253 9.31937 17.355C9.2384 17.3847 9.164 17.431 9.10055 17.4911C9.0371 17.5511 8.9859 17.6238 8.94998 17.7048C8.91405 17.7857 8.89414 17.8734 8.89141 17.9625C8.88868 18.0516 8.90319 18.1403 8.93408 18.2235C9.11124 18.7435 9.43933 19.1938 9.87317 19.5122C10.307 19.8307 10.8253 20.0017 11.3566 20.0017V20.6684H12.6411V20.0017C13.3224 20.0017 13.9759 19.7207 14.4576 19.2206C14.9394 18.7204 15.2101 18.0421 15.2101 17.3348C15.2101 16.6275 14.9394 15.9491 14.4576 15.449C13.9759 14.9489 13.3224 14.6679 12.6411 14.6679V12.001C13.1999 12.001 13.6758 12.371 13.853 12.8897C13.8793 12.9746 13.9217 13.0531 13.9778 13.1207C14.0338 13.1882 14.1024 13.2434 14.1793 13.283C14.2563 13.3226 14.3401 13.3457 14.4258 13.3511C14.5115 13.3564 14.5974 13.3439 14.6784 13.3142C14.7593 13.2845 14.8337 13.2382 14.8972 13.1782C14.9606 13.1181 15.0118 13.0454 15.0478 12.9645C15.0837 12.8835 15.1036 12.7959 15.1063 12.7067C15.109 12.6176 15.0945 12.5289 15.0636 12.4457C14.8865 11.9257 14.5584 11.4754 14.1246 11.157C13.6907 10.8386 13.1724 10.6676 12.6411 10.6676ZM12.6411 16.0013V18.6682C12.9818 18.6682 13.3085 18.5277 13.5494 18.2777C13.7903 18.0276 13.9256 17.6884 13.9256 17.3348C13.9256 16.9811 13.7903 16.642 13.5494 16.3919C13.3085 16.1418 12.9818 16.0013 12.6411 16.0013Z" />
</svg>
