<svg width="25" height="24" viewBox="0 0 25 24" xmlns="http://www.w3.org/2000/svg">
<g clip-path="url(#clip0_88_25)">
<path fill-rule="evenodd" clip-rule="evenodd" d="M2.20526 -6.02321e-07C1.753 -6.02321e-07 1.31926 0.17966 0.99946 0.499459C0.679661 0.819258 0.5 1.253 0.5 1.70526V22.9263C0.5 23.8686 1.26295 24.6316 2.20526 24.6316H23.4263C23.6503 24.6316 23.872 24.5875 24.0789 24.5018C24.2858 24.4161 24.4738 24.2905 24.6321 24.1321C24.7905 23.9738 24.9161 23.7858 25.0018 23.5789C25.0875 23.372 25.1316 23.1503 25.1316 22.9263V1.70526C25.1316 1.48132 25.0875 1.25958 25.0018 1.05269C24.9161 0.845794 24.7905 0.657808 24.6321 0.499459C24.4738 0.341111 24.2858 0.215502 24.0789 0.129805C23.872 0.0441074 23.6503 -6.02321e-07 23.4263 -6.02321e-07H2.20526Z"/>
<path d="M18.6994 6.27748C18.8919 6.45514 19 6.69611 19 6.94737V17.0526C19 17.3039 18.8919 17.5449 18.6994 17.7225C18.5069 17.9002 18.2459 18 17.9737 18C17.7015 18 17.4404 17.9002 17.248 17.7225C17.0555 17.5449 16.9474 17.3039 16.9474 17.0526V6.94737C16.9474 6.69611 17.0555 6.45514 17.248 6.27748C17.4404 6.09981 17.7015 6 17.9737 6C18.2459 6 18.5069 6.09981 18.6994 6.27748Z" fill="#1E1E1E"/>
<path d="M13.2257 10.067C13.0332 9.88929 12.7722 9.78947 12.5 9.78947C12.2278 9.78947 11.9668 9.88929 11.7743 10.067C11.5818 10.2446 11.4737 10.4856 11.4737 10.7368V17.0526C11.4737 17.3039 11.5818 17.5449 11.7743 17.7225C11.9668 17.9002 12.2278 18 12.5 18C12.7722 18 13.0332 17.9002 13.2257 17.7225C13.4182 17.5449 13.5263 17.3039 13.5263 17.0526V10.7368C13.5263 10.4856 13.4182 10.2446 13.2257 10.067Z" fill="#1E1E1E"/>
<path d="M7.75203 12.5933C7.9445 12.7709 8.05263 13.0119 8.05263 13.2632V17.0526C8.05263 17.3039 7.9445 17.5449 7.75203 17.7225C7.55956 17.9002 7.29851 18 7.02632 18C6.75412 18 6.49307 17.9002 6.3006 17.7225C6.10813 17.5449 6 17.3039 6 17.0526V13.2632C6 13.0119 6.10813 12.7709 6.3006 12.5933C6.49307 12.4156 6.75412 12.3158 7.02632 12.3158C7.29851 12.3158 7.55956 12.4156 7.75203 12.5933Z" fill="#1E1E1E"/>
</g>
<defs>
<clipPath id="clip0_88_25">
<rect x="0.5" width="24" height="24" rx="2" />
</clipPath>
</defs>
</svg>
