<svg width="18" height="24" viewBox="0 0 18 24" fill="none" xmlns="http://www.w3.org/2000/svg">
<path d="M17.1888 10.0852L17.1887 10.0851C16.5692 9.73304 15.7824 9.98753 15.4357 10.6432L13.4976 14.5965C13.4976 14.5967 13.4975 14.5968 13.4975 14.5969C13.4389 14.7173 13.3368 14.811 13.2119 14.859C13.087 14.9069 12.9485 14.9057 12.8245 14.8556C12.7264 14.8163 12.6423 14.7486 12.5831 14.661L12.7487 14.549L12.5831 14.661C12.5237 14.5733 12.4921 14.4698 12.4924 14.3639M17.1888 10.0852L12.6924 3.375C12.6924 2.72297 12.09 2.25 11.4375 2.25C10.785 2.25 10.2188 2.72297 10.2188 3.375V10.7175M17.1888 10.0852C17.5056 10.2651 17.6875 10.5197 17.7615 10.8187C17.8367 11.1223 17.8038 11.4865 17.6593 11.881L17.1888 10.0852ZM12.4924 14.3639L12.6924 14.3644H12.4924V14.3639ZM12.4924 14.3639V3.375C12.4924 2.86058 12.0089 2.45 11.4375 2.45C10.8741 2.45 10.4188 2.85367 10.4188 3.375V10.7165M10.4188 10.7165C10.4188 10.716 10.4188 10.7156 10.4188 10.7152L10.2188 10.7175M10.4188 10.7165V10.7175H10.2188M10.4188 10.7165C10.4206 10.9052 10.349 11.0873 10.219 11.2241C10.0887 11.3613 9.91005 11.4423 9.72101 11.4498L9.71683 11.45L9.71683 11.45C9.62171 11.4518 9.52718 11.4346 9.43878 11.3995C9.35037 11.3643 9.26986 11.3119 9.20195 11.2453C9.13405 11.1786 9.08011 11.0991 9.04329 11.0114C9.00648 10.9237 8.98753 10.8295 8.98754 10.7344C8.98754 10.7344 8.98754 10.7344 8.98754 10.7343V1.125C8.98754 0.592537 8.57361 0.2 8.02223 0.2C7.46785 0.2 7.04379 0.595375 7.04379 1.125V10.7164V10.7175H6.84379H10.2188" fill="#FDD901" stroke="#EEEEEE" stroke-width="0.4"/>
</svg>
