<svg width="45" height="45" viewBox="0 0 45 45" fill="none" xmlns="http://www.w3.org/2000/svg">
<g filter="url(#filter0_b_40_235)">
<rect width="45" height="45" rx="22.5" fill="white" fill-opacity="0.2"/>
<path d="M14.8182 20.8963V31.1041C14.8182 31.8928 15.6327 32.544 16.6218 32.544H29.3782C30.3655 32.544 31.1818 31.8944 31.1818 31.1041V20.8963C31.1818 20.1075 30.3673 19.4563 29.3782 19.4563H16.6218C15.6345 19.4563 14.8182 20.1059 14.8182 20.8963ZM20.2727 18.0004V19.4563H25.7273V18.0004H29.3782C31.3782 18.0004 33 19.3091 33 20.8963V31.1041C33 32.704 31.3636 34 29.3782 34H16.6218C14.6218 34 13 32.6912 13 31.1041V20.8963C13 19.2963 14.6364 18.0004 16.6218 18.0004H20.2727ZM23.9036 12.3173C23.9071 12.3449 23.9089 12.3727 23.9091 12.4005V25.2002C23.9091 25.4124 23.8133 25.6158 23.6428 25.7659C23.4723 25.9159 23.2411 26.0002 23 26.0002C22.7589 26.0002 22.5277 25.9159 22.3572 25.7659C22.1867 25.6158 22.0909 25.4124 22.0909 25.2002V12.4005C22.0907 12.3914 22.0907 12.3823 22.0909 12.3733L18.7818 15.4308C18.6932 15.5167 18.5851 15.5853 18.4646 15.6323C18.344 15.6793 18.2137 15.7035 18.0818 15.7035C17.95 15.7035 17.8196 15.6793 17.699 15.6323C17.5785 15.5853 17.4704 15.5167 17.3818 15.4308C17.1946 15.2492 17.091 15.0128 17.091 14.7676C17.091 14.5225 17.1946 14.2861 17.3818 14.1044L20.9273 10.8245C21.1919 10.5651 21.5157 10.3575 21.8775 10.2155C22.2393 10.0734 22.6311 10 23.0273 10C23.4235 10 23.8152 10.0734 24.177 10.2155C24.5389 10.3575 24.8626 10.5651 25.1273 10.8245L28.6727 14.1044C28.8604 14.2861 28.9644 14.5229 28.9644 14.7684C28.9644 15.014 28.8604 15.2507 28.6727 15.4324C28.5841 15.5183 28.4761 15.5869 28.3555 15.6339C28.2349 15.6809 28.1046 15.7051 27.9727 15.7051C27.8409 15.7051 27.7105 15.6809 27.59 15.6339C27.4694 15.5869 27.3613 15.5183 27.2727 15.4324L23.9036 12.3173Z" fill="white"/>
</g>
<defs>
<filter id="filter0_b_40_235" x="-4" y="-4" width="53" height="53" filterUnits="userSpaceOnUse" color-interpolation-filters="sRGB">
<feFlood flood-opacity="0" result="BackgroundImageFix"/>
<feGaussianBlur in="BackgroundImageFix" stdDeviation="2"/>
<feComposite in2="SourceAlpha" operator="in" result="effect1_backgroundBlur_40_235"/>
<feBlend mode="normal" in="SourceGraphic" in2="effect1_backgroundBlur_40_235" result="shape"/>
</filter>
</defs>
</svg>
