<svg width="25" height="24" viewBox="0 0 25 24"  xmlns="http://www.w3.org/2000/svg">
<g clip-path="url(#clip0_36_88)">
<path d="M11.883 0.61695C5.597 0.61695 0.5 5.71395 0.5 11.9999C0.5 18.2859 5.597 23.3829 11.883 23.3829C18.169 23.3829 23.263 18.2859 23.263 11.9999C23.2659 10.493 22.9674 9.00077 22.385 7.61095L19.182 10.8139C19.244 11.2009 19.282 11.5959 19.282 11.9999C19.282 13.4631 18.8482 14.8933 18.0354 16.1099C17.2225 17.3264 16.0672 18.2746 14.7156 18.8346C13.3639 19.3946 11.8765 19.5412 10.4415 19.2559C9.00644 18.9707 7.68824 18.2663 6.65353 17.2318C5.61882 16.1974 4.91407 14.8794 4.62839 13.4445C4.34272 12.0095 4.48893 10.5221 5.04857 9.17024C5.6082 7.8184 6.5561 6.66285 7.77244 5.84971C8.98877 5.03657 10.4189 4.60235 11.882 4.60195C13.381 4.60195 14.771 5.04995 15.936 5.81595L18.793 2.95895C16.8109 1.43772 14.3816 0.614343 11.883 0.61695ZM21.557 1.37295C21.265 1.37295 20.974 1.48495 20.752 1.70695C17.7833 4.67295 14.8167 7.64028 11.852 10.6089L10.096 8.85395C9.8823 8.64083 9.59281 8.52115 9.291 8.52115C8.98919 8.52115 8.6997 8.64083 8.486 8.85395L6.711 10.6269C6.49788 10.8407 6.3782 11.1301 6.3782 11.4319C6.3782 11.7338 6.49788 12.0232 6.711 12.2369L10.877 16.3999C11.0089 16.5324 11.1657 16.6375 11.3383 16.7092C11.511 16.7809 11.6961 16.8178 11.883 16.8178C12.0699 16.8178 12.255 16.7809 12.4277 16.7092C12.6003 16.6375 12.7571 16.5324 12.889 16.3999L24.166 5.12095C24.272 5.0154 24.3561 4.88995 24.4135 4.75181C24.4709 4.61366 24.5005 4.46554 24.5005 4.31595C24.5005 4.16636 24.4709 4.01824 24.4135 3.88009C24.3561 3.74195 24.272 3.6165 24.166 3.51095L22.361 1.70695C22.1477 1.49364 21.8586 1.37353 21.557 1.37295Z"/>
</g>
<defs>
<clipPath id="clip0_36_88">
<rect width="24" height="24" fill="white" transform="translate(0.5)"/>
</clipPath>
</defs>
</svg>
