<svg width="20" height="20" viewBox="0 0 20 20" fill="none" xmlns="http://www.w3.org/2000/svg">
<path d="M9.99999 1.66663C10.8241 1.66663 11.6297 1.911 12.3149 2.36884C13.0001 2.82668 13.5341 3.47742 13.8495 4.23878C14.1649 5.00014 14.2474 5.83791 14.0866 6.64617C13.9258 7.45442 13.529 8.19685 12.9463 8.77957C12.3635 9.36229 11.6211 9.75913 10.8129 9.9199C10.0046 10.0807 9.16683 9.99816 8.40548 9.68279C7.64412 9.36743 6.99337 8.83337 6.53553 8.14817C6.07769 7.46296 5.83332 6.65738 5.83332 5.83329L5.83749 5.65246C5.88409 4.57975 6.343 3.56644 7.11851 2.82384C7.89402 2.08124 8.92627 1.66669 9.99999 1.66663ZM11.6667 11.6666C12.7717 11.6666 13.8315 12.1056 14.6129 12.887C15.3943 13.6684 15.8333 14.7282 15.8333 15.8333V16.6666C15.8333 17.1087 15.6577 17.5326 15.3452 17.8451C15.0326 18.1577 14.6087 18.3333 14.1667 18.3333H5.83332C5.3913 18.3333 4.96737 18.1577 4.65481 17.8451C4.34225 17.5326 4.16666 17.1087 4.16666 16.6666V15.8333C4.16666 14.7282 4.60564 13.6684 5.38704 12.887C6.16845 12.1056 7.22825 11.6666 8.33332 11.6666H11.6667Z" fill="white"/>
</svg>
